<?xml version="1.0" standalone="no"?>
<!DOCTYPE svg PUBLIC "-//W3C//DTD SVG 20010904//EN"
 "http://www.w3.org/TR/2001/REC-SVG-20010904/DTD/svg10.dtd">
<svg version="1.0" xmlns="http://www.w3.org/2000/svg"
 width="900.000000pt" height="394.000000pt" viewBox="0 0 900.000000 394.000000"
 preserveAspectRatio="xMidYMid meet">

<g transform="translate(0.000000,394.000000) scale(0.100000,-0.100000)"
fill="#000000" stroke="none">
<path d="M3315 3780 c-19 -8 -19 -9 3 -9 12 -1 22 4 22 9 0 6 -1 10 -2 9 -2 0
-12 -4 -23 -9z"/>
<path d="M3215 3740 c-3 -5 3 -10 14 -10 12 0 21 5 21 10 0 6 -6 10 -14 10 -8
0 -18 -4 -21 -10z"/>
<path d="M3301 3731 c-9 -6 -10 -11 -2 -15 13 -8 31 1 31 15 0 11 -11 11 -29
0z"/>
<path d="M3148 3713 c7 -3 16 -2 19 1 4 3 -2 6 -13 5 -11 0 -14 -3 -6 -6z"/>
<path d="M3288 3684 c2 -13 8 -24 13 -24 14 0 10 37 -4 43 -10 4 -13 -2 -9
-19z"/>
<path d="M3065 3690 c-3 -5 -17 -10 -30 -10 -13 0 -26 -4 -30 -9 -9 -15 14
-24 29 -12 7 6 31 17 52 25 35 13 36 15 12 15 -15 1 -30 -3 -33 -9z"/>
<path d="M3243 3693 c-15 -6 -17 -33 -3 -33 5 0 14 9 20 20 11 20 6 23 -17 13z"/>
<path d="M1533 3669 c-18 -5 -33 -11 -33 -12 0 -2 334 0 375 2 17 1 17 3 5 11
-19 12 -304 11 -347 -1z"/>
<path d="M1937 3643 c19 -15 83 -17 83 -4 0 5 -23 11 -50 13 -42 2 -48 1 -33
-9z"/>
<path d="M2979 3640 c30 -26 49 -26 26 0 -10 11 -25 20 -34 20 -12 -1 -10 -5
8 -20z"/>
<path d="M3200 3645 c0 -8 5 -15 10 -15 6 0 10 7 10 15 0 8 -4 15 -10 15 -5 0
-10 -7 -10 -15z"/>
<path d="M1394 3636 c-11 -8 -31 -16 -44 -18 -19 -2 -21 -5 -9 -10 9 -3 29 0
44 8 15 8 40 14 56 14 15 0 31 5 34 10 10 15 -58 12 -81 -4z"/>
<path d="M3068 3643 c7 -3 16 -2 19 1 4 3 -2 6 -13 5 -11 0 -14 -3 -6 -6z"/>
<path d="M3264 3634 c3 -8 6 -22 6 -30 0 -9 5 -12 10 -9 16 10 12 42 -6 49
-12 5 -15 2 -10 -10z"/>
<path d="M2040 3621 c0 -18 17 -20 36 -6 18 14 18 14 -8 15 -16 0 -28 -4 -28
-9z"/>
<path d="M1760 3610 c0 -6 7 -10 15 -10 8 0 15 2 15 4 0 2 -7 6 -15 10 -8 3
-15 1 -15 -4z"/>
<path d="M1868 3613 c7 -3 16 -2 19 1 4 3 -2 6 -13 5 -11 0 -14 -3 -6 -6z"/>
<path d="M3230 3605 c0 -8 2 -15 4 -15 2 0 6 7 10 15 3 8 1 15 -4 15 -6 0 -10
-7 -10 -15z"/>
<path d="M1500 3595 c-25 -14 -25 -14 -2 -15 12 0 22 4 22 9 0 5 12 12 28 14
26 4 26 4 2 5 -14 1 -36 -5 -50 -13z"/>
<path d="M2120 3594 c0 -8 -4 -13 -10 -9 -5 3 -18 -2 -30 -12 -41 -35 -15 -38
38 -3 22 15 30 40 12 40 -5 0 -10 -7 -10 -16z"/>
<path d="M3010 3589 c0 -12 -8 -28 -17 -35 -12 -9 -14 -13 -5 -14 7 0 20 6 28
14 16 17 19 56 4 56 -5 0 -10 -10 -10 -21z"/>
<path d="M1260 3590 c0 -5 4 -10 9 -10 6 0 13 5 16 10 3 6 -1 10 -9 10 -9 0
-16 -4 -16 -10z"/>
<path d="M1447 3589 c7 -7 15 -10 18 -7 3 3 -2 9 -12 12 -14 6 -15 5 -6 -5z"/>
<path d="M1940 3581 c0 -13 27 -21 45 -15 25 10 17 24 -15 24 -16 0 -30 -4
-30 -9z"/>
<path d="M2143 3567 c-18 -12 -33 -25 -33 -29 0 -16 17 -7 45 22 34 35 31 37
-12 7z"/>
<path d="M1683 3573 c-35 -7 -27 -19 11 -20 26 -1 33 3 29 13 -3 8 -8 13 -12
13 -3 -1 -16 -4 -28 -6z"/>
<path d="M1218 3563 c7 -3 16 -2 19 1 4 3 -2 6 -13 5 -11 0 -14 -3 -6 -6z"/>
<path d="M3240 3551 c-6 -12 -6 -22 -1 -26 10 -6 14 -1 24 28 9 23 -10 22 -23
-2z"/>
<path d="M1578 3553 c7 -3 16 -2 19 1 4 3 -2 6 -13 5 -11 0 -14 -3 -6 -6z"/>
<path d="M1628 3553 c7 -3 16 -2 19 1 4 3 -2 6 -13 5 -11 0 -14 -3 -6 -6z"/>
<path d="M1845 3544 c44 -14 135 -19 100 -5 -11 5 -47 10 -80 13 l-60 5 40
-13z"/>
<path d="M1160 3542 c0 -14 37 -30 51 -22 10 7 7 11 -14 19 -34 13 -37 13 -37
3z"/>
<path d="M1306 3535 c4 -8 7 -15 9 -15 2 0 5 7 9 15 3 9 0 15 -9 15 -9 0 -12
-6 -9 -15z"/>
<path d="M1405 3536 c-22 -7 -53 -18 -68 -24 -16 -7 -39 -12 -53 -12 -13 0
-24 -4 -24 -10 0 -14 27 -12 75 4 94 32 121 39 147 38 15 0 30 4 33 9 8 12
-61 9 -110 -5z"/>
<path d="M1993 3543 c-17 -6 -16 -23 1 -23 8 0 16 7 20 15 6 15 1 17 -21 8z"/>
<path d="M2520 3515 c-53 -22 -160 -64 -262 -101 -27 -9 -48 -20 -48 -25 0 -4
12 -20 27 -35 l27 -27 -215 -210 c-333 -327 -578 -567 -901 -884 -164 -161
-298 -297 -298 -303 0 -16 91 -141 100 -138 5 2 95 88 202 192 211 206 889
869 1004 981 40 39 109 106 153 150 l81 79 35 -34 c19 -18 37 -31 40 -28 7 7
46 121 85 248 18 58 36 115 40 127 8 20 4 34 -9 32 -3 0 -31 -11 -61 -24z"/>
<path d="M2045 3520 l-30 -6 33 -8 c20 -5 38 -4 44 2 13 13 -10 20 -47 12z"/>
<path d="M1100 3510 c0 -5 4 -10 9 -10 6 0 13 5 16 10 3 6 -1 10 -9 10 -9 0
-16 -4 -16 -10z"/>
<path d="M2923 3482 c-26 -33 -29 -40 -18 -56 15 -19 28 -6 19 18 -5 12 -2 15
10 10 12 -5 15 -2 10 10 -4 10 1 25 11 36 10 11 14 20 8 20 -5 0 -23 -17 -40
-38z"/>
<path d="M1128 3496 c-10 -10 -19 -11 -32 -4 -10 5 -20 7 -23 4 -4 -3 -1 -6 5
-6 18 0 14 -28 -5 -39 -10 -5 -15 -12 -13 -15 3 -3 21 8 40 24 19 17 41 30 48
30 6 0 12 5 12 10 0 14 -16 12 -32 -4z"/>
<path d="M3214 3482 c-6 -22 -44 -32 -44 -12 0 6 -7 10 -15 10 -8 0 -15 -7
-15 -15 0 -9 6 -12 15 -9 8 4 15 2 15 -3 0 -4 9 -14 20 -20 16 -11 18 -10 14
2 -4 9 0 15 9 15 19 0 31 30 17 44 -8 8 -12 4 -16 -12z"/>
<path d="M1023 3467 c-4 -7 -33 -31 -63 -52 -53 -38 -110 -90 -110 -100 0 -14
23 0 63 38 72 67 75 69 110 62 25 -5 28 -4 15 5 -22 13 -12 40 14 40 10 0 16
5 13 10 -9 14 -32 12 -42 -3z"/>
<path d="M1205 3471 c-3 -5 -1 -12 4 -15 12 -8 41 3 41 15 0 12 -37 12 -45 0z"/>
<path d="M3085 3430 c-10 -11 -16 -22 -13 -25 3 -3 13 6 22 20 20 30 16 32 -9
5z"/>
<path d="M3027 3434 c-8 -8 1 -24 14 -24 5 0 9 7 9 15 0 15 -12 20 -23 9z"/>
<path d="M1116 3415 c4 -10 0 -15 -11 -15 -9 0 -13 -5 -10 -10 3 -6 -2 -13
-11 -17 -10 -4 -19 -2 -22 5 -2 7 -8 12 -13 12 -6 0 -5 -8 1 -20 14 -26 20
-25 52 5 15 14 32 25 38 25 5 0 10 7 10 15 0 8 -9 15 -20 15 -13 0 -18 -5 -14
-15z"/>
<path d="M2955 3420 c3 -5 8 -10 11 -10 2 0 4 5 4 10 0 6 -5 10 -11 10 -5 0
-7 -4 -4 -10z"/>
<path d="M2830 3394 c0 -10 31 -36 37 -31 3 3 -2 13 -10 22 -16 15 -27 19 -27
9z"/>
<path d="M2968 3375 c-21 -27 -22 -35 -7 -35 5 0 8 4 5 8 -3 5 6 15 19 22 13
7 22 17 19 22 -8 13 -18 9 -36 -17z"/>
<path d="M2795 3351 c-3 -5 -1 -12 5 -16 5 -3 10 1 10 9 0 18 -6 21 -15 7z"/>
<path d="M988 3343 c7 -3 16 -2 19 1 4 3 -2 6 -13 5 -11 0 -14 -3 -6 -6z"/>
<path d="M1010 3320 c0 -5 5 -10 10 -10 6 0 10 5 10 10 0 6 -4 10 -10 10 -5 0
-10 -4 -10 -10z"/>
<path d="M2765 3320 c3 -5 8 -10 11 -10 2 0 4 5 4 10 0 6 -5 10 -11 10 -5 0
-7 -4 -4 -10z"/>
<path d="M2920 3320 c0 -5 7 -7 15 -4 8 4 15 8 15 10 0 2 -7 4 -15 4 -8 0 -15
-4 -15 -10z"/>
<path d="M947 3299 c4 -15 8 -17 14 -8 8 14 3 29 -11 29 -4 0 -6 -9 -3 -21z"/>
<path d="M2951 3304 c-21 -24 -3 -30 19 -6 13 14 16 22 8 22 -7 -1 -19 -8 -27
-16z"/>
<path d="M900 3306 c0 -2 7 -7 16 -10 8 -3 12 -2 9 4 -6 10 -25 14 -25 6z"/>
<path d="M2730 3290 c-7 -13 -7 -20 -1 -20 6 0 15 9 21 20 7 13 7 20 1 20 -6
0 -15 -9 -21 -20z"/>
<path d="M827 3293 c-8 -13 2 -43 14 -43 10 0 10 8 0 34 -5 12 -10 16 -14 9z"/>
<path d="M1810 3290 c0 -5 7 -10 15 -10 8 0 15 -9 15 -20 0 -11 5 -20 10 -20
6 0 10 14 10 30 0 25 -4 30 -25 30 -14 0 -25 -4 -25 -10z"/>
<path d="M2826 3285 c-3 -8 -1 -15 4 -15 6 0 10 7 10 15 0 8 -2 15 -4 15 -2 0
-6 -7 -10 -15z"/>
<path d="M890 3280 c0 -5 5 -10 10 -10 6 0 10 5 10 10 0 6 -4 10 -10 10 -5 0
-10 -4 -10 -10z"/>
<path d="M974 3281 c3 -5 -1 -15 -10 -22 -13 -10 -17 -10 -24 1 -5 8 -11 12
-14 10 -2 -3 2 -14 10 -24 13 -18 14 -18 33 5 23 27 26 39 10 39 -5 0 -8 -4
-5 -9z"/>
<path d="M2888 3283 c7 -3 16 -2 19 1 4 3 -2 6 -13 5 -11 0 -14 -3 -6 -6z"/>
<path d="M1756 3271 c-3 -5 3 -11 14 -14 21 -5 32 1 24 14 -7 12 -31 11 -38 0z"/>
<path d="M2870 3260 c0 -5 5 -10 10 -10 6 0 10 5 10 10 0 6 -4 10 -10 10 -5 0
-10 -4 -10 -10z"/>
<path d="M783 3245 c-21 -24 -14 -40 7 -17 11 12 20 24 20 27 0 10 -15 4 -27
-10z"/>
<path d="M2690 3251 c0 -5 7 -11 14 -14 10 -4 13 -1 9 9 -6 15 -23 19 -23 5z"/>
<path d="M1670 3242 c0 -4 8 -8 18 -8 9 -1 31 -4 47 -8 l30 -7 -25 15 c-27 16
-70 21 -70 8z"/>
<path d="M2749 3237 c6 -8 9 -17 6 -21 -3 -3 0 -2 6 3 12 10 4 31 -13 31 -7 0
-7 -4 1 -13z"/>
<path d="M1806 3231 c-4 -6 -3 -11 3 -11 5 0 11 -12 13 -27 2 -20 5 -23 9 -12
9 19 -15 66 -25 50z"/>
<path d="M857 3219 c-9 -6 -17 -14 -17 -19 0 -16 30 -11 37 5 8 21 1 25 -20
14z"/>
<path d="M1578 3211 c-16 -10 -25 -21 -22 -24 4 -3 16 0 28 8 11 8 31 15 43
15 13 0 23 5 23 10 0 16 -42 10 -72 -9z"/>
<path d="M2660 3224 c0 -14 59 -63 65 -54 3 5 -6 21 -22 35 -27 24 -43 31 -43
19z"/>
<path d="M913 3211 c1 -5 -7 -16 -18 -25 -16 -12 -18 -17 -7 -28 10 -10 14 -9
18 9 3 12 12 24 20 27 19 7 18 26 -1 26 -8 0 -14 -4 -12 -9z"/>
<path d="M2796 3204 c-9 -22 -8 -24 9 -18 8 4 15 12 15 20 0 19 -16 18 -24 -2z"/>
<path d="M2848 3190 c-17 -17 -29 -32 -26 -35 2 -3 20 11 38 30 41 43 32 47
-12 5z"/>
<path d="M740 3185 c0 -8 7 -15 16 -15 14 0 14 3 4 15 -7 8 -14 15 -16 15 -2
0 -4 -7 -4 -15z"/>
<path d="M1510 3192 c0 -4 10 -13 21 -21 19 -11 21 -11 15 4 -3 9 -6 19 -6 21
0 2 -7 4 -15 4 -8 0 -15 -3 -15 -8z"/>
<path d="M1738 3183 c7 -3 16 -2 19 1 4 3 -2 6 -13 5 -11 0 -14 -3 -6 -6z"/>
<path d="M2590 3149 c-17 -17 -29 -34 -26 -36 8 -8 47 18 41 28 -4 5 1 9 9 9
9 0 16 7 16 15 0 21 -4 19 -40 -16z"/>
<path d="M2745 3160 c-3 -5 1 -10 9 -10 9 0 16 5 16 10 0 6 -4 10 -9 10 -6 0
-13 -4 -16 -10z"/>
<path d="M717 3153 c-4 -3 -7 -13 -7 -20 0 -12 3 -12 15 1 8 8 15 17 15 20 0
8 -15 7 -23 -1z"/>
<path d="M860 3140 c0 -19 11 -26 23 -14 8 8 -3 34 -14 34 -5 0 -9 -9 -9 -20z"/>
<path d="M1797 3153 c-11 -10 -8 -43 3 -43 6 0 10 11 10 25 0 26 -2 29 -13 18z"/>
<path d="M1560 3131 c0 -12 5 -21 10 -21 6 0 10 6 10 14 0 8 -4 18 -10 21 -5
3 -10 -3 -10 -14z"/>
<path d="M2771 3119 c-18 -16 -31 -35 -29 -40 2 -5 19 6 37 25 43 44 36 57 -8
15z"/>
<path d="M806 3124 c-3 -9 -6 -21 -5 -27 0 -7 4 -2 10 11 5 13 13 20 19 17 5
-3 10 -1 10 4 0 17 -27 13 -34 -5z"/>
<path d="M2673 3115 c4 -9 7 -23 7 -31 0 -21 17 -17 23 6 4 14 -1 24 -15 31
-18 10 -20 9 -15 -6z"/>
<path d="M740 3110 c0 -5 5 -10 10 -10 6 0 10 5 10 10 0 6 -4 10 -10 10 -5 0
-10 -4 -10 -10z"/>
<path d="M2605 3100 c-8 -13 5 -13 25 0 13 8 13 10 -2 10 -9 0 -20 -4 -23 -10z"/>
<path d="M2516 3073 c-14 -14 -24 -29 -21 -32 4 -3 10 1 16 9 8 13 10 13 18 0
6 -8 13 -11 18 -7 4 5 1 12 -7 17 -11 7 -11 11 -1 24 21 25 6 18 -23 -11z"/>
<path d="M702 3078 c6 -18 28 -21 28 -4 0 9 -7 16 -16 16 -9 0 -14 -5 -12 -12z"/>
<path d="M1658 3072 c19 -21 27 -20 19 3 -4 8 -13 15 -22 15 -13 0 -12 -3 3
-18z"/>
<path d="M1776 3064 c-4 -16 -13 -25 -24 -23 -37 3 -42 -1 -22 -21 29 -29 36
-25 53 25 9 25 12 45 7 45 -4 0 -11 -12 -14 -26z"/>
<path d="M810 3073 c0 -5 5 -15 10 -23 8 -12 10 -11 10 8 0 12 -4 22 -10 22
-5 0 -10 -3 -10 -7z"/>
<path d="M1560 3060 c0 -5 5 -10 11 -10 5 0 7 5 4 10 -3 6 -8 10 -11 10 -2 0
-4 -4 -4 -10z"/>
<path d="M1502 3045 c-11 -12 -10 -15 3 -15 8 0 15 7 15 15 0 18 -2 18 -18 0z"/>
<path d="M2708 3048 c6 -8 8 -18 4 -23 -4 -4 0 -6 8 -3 22 7 18 32 -5 37 -16
3 -17 1 -7 -11z"/>
<path d="M665 3040 c-3 -5 -1 -10 4 -10 6 0 11 5 11 10 0 6 -2 10 -4 10 -3 0
-8 -4 -11 -10z"/>
<path d="M2656 3028 c8 -27 12 -33 19 -27 7 8 -7 49 -17 49 -5 0 -6 -10 -2
-22z"/>
<path d="M1586 3015 c-3 -8 -1 -15 4 -15 6 0 10 7 10 15 0 8 -2 15 -4 15 -2 0
-6 -7 -10 -15z"/>
<path d="M1670 3020 c0 -5 7 -10 15 -10 8 0 15 5 15 10 0 6 -7 10 -15 10 -8 0
-15 -4 -15 -10z"/>
<path d="M2473 3017 c4 -10 7 -23 7 -28 0 -5 5 -9 10 -9 15 0 12 20 -7 38 -16
16 -16 16 -10 -1z"/>
<path d="M1470 3010 c0 -5 5 -10 11 -10 5 0 7 5 4 10 -3 6 -8 10 -11 10 -2 0
-4 -4 -4 -10z"/>
<path d="M1520 3012 c0 -4 -12 -20 -26 -35 -14 -16 -23 -31 -20 -34 3 -3 15 6
27 20 11 15 27 27 35 27 19 0 18 16 -1 24 -8 3 -15 2 -15 -2z"/>
<path d="M790 2995 c0 -8 -9 -22 -19 -32 -14 -13 -17 -23 -10 -33 8 -13 10
-13 19 0 5 8 10 23 10 32 0 9 5 20 10 23 6 3 10 10 10 16 0 5 -4 9 -10 9 -5 0
-10 -7 -10 -15z"/>
<path d="M2543 2995 c-7 -8 -10 -21 -7 -29 8 -20 34 -29 34 -11 0 8 -5 15 -11
15 -6 0 -8 9 -4 20 7 23 5 25 -12 5z"/>
<path d="M1710 2998 c0 -8 37 -48 44 -48 3 0 6 8 6 17 0 9 -3 13 -7 10 -3 -4
-15 0 -25 10 -10 9 -18 14 -18 11z"/>
<path d="M2430 2985 c-11 -13 -9 -20 10 -40 26 -28 40 -32 40 -11 0 8 6 16 13
19 6 2 8 8 4 13 -5 5 -15 1 -22 -10 -18 -23 -38 -11 -32 20 5 28 4 29 -13 9z"/>
<path d="M640 2960 c0 -16 5 -30 10 -30 6 0 9 14 8 30 -1 17 -6 30 -10 30 -4
0 -8 -13 -8 -30z"/>
<path d="M686 2975 c4 -8 8 -15 10 -15 2 0 4 7 4 15 0 8 -4 15 -10 15 -5 0 -7
-7 -4 -15z"/>
<path d="M1405 2950 c-22 -22 -35 -40 -29 -40 5 0 15 5 22 12 9 9 16 7 32 -7
11 -10 20 -13 20 -7 0 6 -8 16 -17 22 -17 10 -16 12 5 26 21 16 30 34 15 34
-5 -1 -26 -19 -48 -40z"/>
<path d="M1600 2966 c0 -8 -6 -17 -12 -19 -7 -3 -8 -6 -3 -6 6 0 21 8 35 19
l25 20 -22 0 c-13 0 -23 -6 -23 -14z"/>
<path d="M2366 2920 c-20 -22 -38 -40 -40 -40 -9 0 -67 -63 -62 -67 3 -3 16 7
30 22 15 16 26 25 26 22 0 -3 14 7 30 21 17 15 30 33 30 40 0 8 6 12 15 8 10
-4 15 1 15 14 0 11 -2 20 -4 20 -2 0 -20 -18 -40 -40z"/>
<path d="M2731 2923 c0 -18 4 -33 9 -33 6 0 10 -7 10 -15 0 -8 4 -15 10 -15
15 0 29 35 23 58 -8 31 -21 27 -15 -4 7 -38 -21 -26 -29 12 l-7 29 -1 -32z"/>
<path d="M2670 2929 c0 -5 5 -7 10 -4 6 3 10 8 10 11 0 2 -4 4 -10 4 -5 0 -10
-5 -10 -11z"/>
<path d="M1500 2920 c0 -5 5 -10 10 -10 6 0 10 5 10 10 0 6 -4 10 -10 10 -5 0
-10 -4 -10 -10z"/>
<path d="M1554 2915 c-10 -8 -14 -14 -9 -15 15 0 40 18 34 24 -3 3 -14 -1 -25
-9z"/>
<path d="M617 2913 c-11 -18 -6 -111 7 -116 9 -4 12 10 10 55 -3 59 -7 77 -17
61z"/>
<path d="M2640 2903 c0 -13 5 -23 10 -23 13 0 13 11 0 30 -8 12 -10 11 -10 -7z"/>
<path d="M2711 2894 c0 -11 3 -14 6 -6 3 7 2 16 -1 19 -3 4 -6 -2 -5 -13z"/>
<path d="M1460 2890 c0 -5 9 -10 21 -10 11 0 17 5 14 10 -3 6 -13 10 -21 10
-8 0 -14 -4 -14 -10z"/>
<path d="M2503 2888 c1 -8 -6 -12 -18 -10 -18 2 -19 2 -2 -8 9 -6 22 -8 27 -5
13 8 13 35 0 35 -5 0 -9 -6 -7 -12z"/>
<path d="M1340 2880 c-9 -6 -10 -10 -3 -10 6 0 15 5 18 10 8 12 4 12 -15 0z"/>
<path d="M1390 2875 c-7 -8 -16 -12 -21 -9 -5 3 -9 -2 -9 -10 0 -9 2 -16 5
-16 9 0 47 41 42 46 -2 2 -10 -2 -17 -11z"/>
<path d="M1455 2815 c-56 -56 -69 -64 -86 -55 -21 12 -26 1 -8 -17 21 -21 0
-33 -29 -17 -35 18 -47 18 -28 -1 8 -8 19 -15 25 -15 6 0 11 -3 11 -6 0 -3
-45 -49 -100 -103 -55 -53 -100 -100 -100 -105 0 -4 18 9 40 30 88 84 350 346
350 350 0 10 -13 0 -75 -61z"/>
<path d="M747 2856 c-4 -10 -5 -21 -2 -24 9 -9 17 6 13 25 -3 17 -4 17 -11 -1z"/>
<path d="M2403 2856 c-10 -11 -9 -15 1 -19 14 -5 36 10 36 25 0 13 -24 9 -37
-6z"/>
<path d="M2715 2859 c-4 -6 -5 -12 -2 -15 2 -3 7 2 10 11 7 17 1 20 -8 4z"/>
<path d="M700 2851 c0 -6 5 -13 10 -16 6 -3 10 1 10 9 0 9 -4 16 -10 16 -5 0
-10 -4 -10 -9z"/>
<path d="M1300 2839 c0 -5 5 -7 10 -4 6 3 10 8 10 11 0 2 -4 4 -10 4 -5 0 -10
-5 -10 -11z"/>
<path d="M1430 2840 c0 -5 5 -10 10 -10 6 0 10 5 10 10 0 6 -4 10 -10 10 -5 0
-10 -4 -10 -10z"/>
<path d="M2456 2834 c-9 -9 -14 -19 -11 -22 3 -3 13 2 22 11 9 9 14 19 11 22
-3 3 -13 -2 -22 -11z"/>
<path d="M1270 2818 c0 -7 5 -20 10 -28 8 -12 10 -9 10 13 0 15 -4 27 -10 27
-5 0 -10 -6 -10 -12z"/>
<path d="M2349 2819 c-10 -6 -7 -9 14 -9 29 0 35 5 14 13 -8 3 -20 1 -28 -4z"/>
<path d="M2785 2788 c3 -24 7 -80 8 -124 1 -45 5 -77 9 -70 9 13 11 198 2 220
-13 33 -25 15 -19 -26z"/>
<path d="M2301 2811 c-7 -5 -11 -15 -9 -22 3 -10 8 -7 17 9 13 24 12 26 -8 13z"/>
<path d="M2664 2785 c3 -22 6 -71 7 -110 0 -49 3 -64 9 -50 11 25 1 177 -13
190 -6 7 -8 -3 -3 -30z"/>
<path d="M1390 2800 c0 -5 5 -10 10 -10 6 0 10 5 10 10 0 6 -4 10 -10 10 -5 0
-10 -4 -10 -10z"/>
<path d="M2199 2759 c-21 -22 -33 -41 -28 -44 4 -3 14 3 21 15 16 25 44 26 57
1 6 -10 22 -22 37 -25 25 -7 26 -8 9 -27 -10 -10 -15 -22 -12 -26 10 -9 36 28
37 51 0 12 -5 16 -15 13 -8 -4 -17 -2 -20 3 -6 9 17 15 39 11 9 -2 26 18 26
32 0 4 -7 7 -16 7 -9 0 -14 -6 -11 -13 6 -17 -40 -21 -76 -6 -26 11 -27 13
-11 30 33 37 -2 16 -37 -22z"/>
<path d="M2395 2775 c-16 -13 -27 -27 -24 -30 3 -3 19 6 34 20 38 32 29 40
-10 10z"/>
<path d="M741 2774 c0 -11 3 -14 6 -6 3 7 2 16 -1 19 -3 4 -6 -2 -5 -13z"/>
<path d="M1315 2780 c3 -5 8 -10 11 -10 2 0 4 5 4 10 0 6 -5 10 -11 10 -5 0
-7 -4 -4 -10z"/>
<path d="M2710 2773 c0 -5 5 -15 10 -23 9 -13 10 -13 10 0 0 13 1 13 10 0 8
-13 10 -13 10 1 0 9 -7 20 -16 23 -20 8 -24 8 -24 -1z"/>
<path d="M590 2698 c0 -40 5 -80 10 -88 7 -10 10 12 10 73 0 51 -4 87 -10 87
-6 0 -10 -31 -10 -72z"/>
<path d="M1204 2749 c-4 -8 1 -9 17 -5 13 3 18 3 12 0 -7 -3 -13 -10 -13 -15
0 -6 -12 -21 -27 -35 -16 -13 -22 -23 -14 -22 17 4 57 42 71 68 9 17 8 20 -14
20 -14 0 -28 -5 -32 -11z"/>
<path d="M3336 2748 c-3 -7 -10 -71 -16 -143 -6 -71 -20 -182 -31 -245 -11
-63 -31 -178 -45 -255 -13 -77 -36 -205 -50 -285 -14 -80 -30 -174 -35 -210
-5 -36 -11 -72 -14 -80 -2 -8 -16 -82 -31 -165 -14 -82 -30 -172 -35 -200 -5
-27 -18 -85 -29 -129 -11 -43 -17 -82 -14 -87 7 -12 206 -12 237 0 21 8 25 18
30 63 3 29 14 103 25 163 12 61 35 191 52 290 38 222 51 284 62 291 4 3 56 -2
116 -12 154 -24 329 -16 437 21 245 82 397 276 412 525 13 209 -107 364 -323
415 -38 9 -96 24 -129 33 -83 22 -613 31 -619 10z m560 -123 c158 -47 244
-225 205 -425 -39 -199 -195 -362 -373 -391 -71 -11 -245 5 -266 25 -15 15
-15 18 67 481 57 319 50 300 114 315 56 14 201 11 253 -5z"/>
<path d="M4927 2753 c-4 -3 -7 -20 -7 -37 0 -37 -16 -158 -36 -276 -8 -47 -19
-112 -25 -145 -5 -33 -19 -112 -30 -175 -32 -181 -36 -206 -63 -365 -15 -82
-31 -170 -36 -195 -5 -25 -21 -115 -35 -200 -15 -85 -40 -221 -56 -302 -17
-82 -27 -152 -24 -158 3 -5 28 -10 55 -10 61 0 63 4 79 135 19 161 64 432 126
760 16 85 57 324 76 440 17 109 19 115 33 115 13 0 46 -31 46 -43 0 -4 26 -46
58 -95 62 -92 339 -522 382 -592 14 -22 75 -118 136 -213 61 -94 161 -251 223
-347 62 -96 119 -179 128 -184 25 -14 39 13 53 99 22 139 33 202 95 550 9 50
22 126 30 170 8 44 18 105 24 135 28 155 74 420 81 460 4 25 17 101 28 170 43
255 49 295 45 303 -2 4 -31 7 -63 7 -70 0 -66 8 -75 -155 -6 -109 -28 -252
-115 -755 -16 -91 -38 -217 -49 -280 -33 -189 -35 -195 -56 -195 -11 0 -26 11
-33 25 -7 14 -34 58 -60 98 -26 40 -96 150 -156 245 -60 94 -142 222 -181 282
-203 315 -442 688 -453 710 -12 23 -19 25 -76 25 -34 0 -66 -3 -69 -7z"/>
<path d="M6778 2754 c-3 -3 22 -53 56 -112 34 -59 83 -150 108 -202 197 -406
268 -553 268 -556 0 -1 25 -55 55 -118 l55 -115 -10 -68 c-6 -37 -15 -88 -19
-113 -9 -50 -65 -360 -86 -485 -8 -44 -11 -83 -6 -88 4 -4 61 -6 127 -5 l118
3 7 40 c4 22 12 78 19 125 15 107 47 301 59 360 5 25 18 92 27 149 l18 104
151 187 c82 103 222 276 310 384 88 108 171 211 185 229 94 123 204 257 211
257 5 0 9 7 9 15 0 24 -118 21 -127 -2 -5 -15 -185 -246 -259 -333 -30 -35
-288 -352 -397 -487 -50 -64 -97 -113 -107 -113 -12 0 -58 87 -170 328 -225
481 -245 522 -266 574 l-19 48 -156 0 c-86 0 -158 -3 -161 -6z"/>
<path d="M2330 2709 c0 -5 5 -7 10 -4 6 3 10 8 10 11 0 2 -4 4 -10 4 -5 0 -10
-5 -10 -11z"/>
<path d="M2190 2703 c0 -14 19 -38 25 -32 8 8 -5 39 -16 39 -5 0 -9 -3 -9 -7z"/>
<path d="M1275 2690 c-3 -5 -2 -10 4 -10 5 0 13 5 16 10 3 6 2 10 -4 10 -5 0
-13 -4 -16 -10z"/>
<path d="M2100 2658 c-23 -27 -28 -37 -15 -30 31 16 81 72 64 71 -8 0 -30 -19
-49 -41z"/>
<path d="M655 2681 c-3 -5 -1 -12 5 -16 5 -3 10 1 10 9 0 18 -6 21 -15 7z"/>
<path d="M720 2671 c0 -25 6 -27 13 -6 4 8 2 17 -3 20 -6 4 -10 -3 -10 -14z"/>
<path d="M2748 2669 c-3 -7 -1 -27 3 -44 14 -60 20 -135 9 -135 -5 0 -10 -7
-10 -16 0 -9 7 -14 18 -12 14 3 16 13 13 63 -4 70 -26 166 -33 144z"/>
<path d="M2230 2649 c0 -5 5 -7 10 -4 6 3 10 8 10 11 0 2 -4 4 -10 4 -5 0 -10
-5 -10 -11z"/>
<path d="M1197 2644 c-13 -13 -7 -20 18 -22 14 -1 25 3 25 9 0 6 -6 9 -14 6
-8 -3 -16 -1 -18 4 -2 6 -7 7 -11 3z"/>
<path d="M680 2625 c0 -8 5 -15 10 -15 6 0 10 7 10 15 0 8 -4 15 -10 15 -5 0
-10 -7 -10 -15z"/>
<path d="M1115 2631 c-6 -11 9 -23 19 -14 9 9 7 23 -3 23 -6 0 -12 -4 -16 -9z"/>
<path d="M2260 2629 c0 -5 5 -7 10 -4 6 3 10 8 10 11 0 2 -4 4 -10 4 -5 0 -10
-5 -10 -11z"/>
<path d="M2153 2616 c4 -14 47 -21 47 -8 0 5 -11 12 -25 15 -16 3 -24 0 -22
-7z"/>
<path d="M1073 2607 c2 -7 14 -14 26 -15 28 -4 20 13 -9 21 -14 3 -20 1 -17
-6z"/>
<path d="M2210 2600 c0 -5 7 -10 15 -10 8 0 15 5 15 10 0 6 -7 10 -15 10 -8 0
-15 -4 -15 -10z"/>
<path d="M1040 2591 c0 -6 4 -13 10 -16 6 -3 7 1 4 9 -7 18 -14 21 -14 7z"/>
<path d="M2066 2585 c-7 -20 9 -28 23 -11 9 10 8 15 -3 19 -8 3 -17 -1 -20 -8z"/>
<path d="M1155 2580 c3 -5 0 -10 -7 -10 -8 0 -14 -10 -15 -21 -2 -21 -2 -21
22 1 23 22 25 40 4 40 -6 0 -7 -4 -4 -10z"/>
<path d="M610 2531 c0 -28 4 -52 9 -55 11 -7 21 55 14 83 -10 38 -23 22 -23
-28z"/>
<path d="M2660 2565 c0 -8 7 -15 15 -15 9 0 12 6 9 15 -4 8 -10 15 -15 15 -5
0 -9 -7 -9 -15z"/>
<path d="M2130 2560 c0 -5 8 -14 18 -19 12 -8 13 -10 3 -11 -8 0 -11 -3 -8 -7
8 -7 47 26 47 40 0 5 -7 4 -15 -3 -10 -9 -15 -9 -15 -1 0 6 -7 11 -15 11 -8 0
-15 -4 -15 -10z"/>
<path d="M1080 2535 c0 -8 5 -15 10 -15 6 0 10 7 10 15 0 8 -4 15 -10 15 -5 0
-10 -7 -10 -15z"/>
<path d="M2035 2540 c-3 -5 -1 -10 4 -10 6 0 11 5 11 10 0 6 -2 10 -4 10 -3 0
-8 -4 -11 -10z"/>
<path d="M978 2533 c-10 -2 -18 -9 -18 -14 0 -12 17 -11 25 1 4 6 15 8 26 5
11 -4 19 -2 19 4 0 11 -20 13 -52 4z"/>
<path d="M2105 2530 c4 -6 11 -8 16 -5 14 9 11 15 -7 15 -8 0 -12 -5 -9 -10z"/>
<path d="M2679 2538 c-6 -21 -5 -38 2 -38 5 0 9 9 9 20 0 16 -7 28 -11 18z"/>
<path d="M1965 2520 c-3 -5 -1 -10 4 -10 6 0 11 5 11 10 0 6 -2 10 -4 10 -3 0
-8 -4 -11 -10z"/>
<path d="M742 2508 c-16 -16 -15 -25 3 -25 8 0 15 9 15 19 0 21 -2 22 -18 6z"/>
<path d="M2730 2504 c0 -8 5 -12 10 -9 6 3 10 10 10 16 0 5 -4 9 -10 9 -5 0
-10 -7 -10 -16z"/>
<path d="M1990 2503 c0 -5 9 -18 20 -28 11 -10 20 -14 20 -8 0 5 -9 18 -20 28
-11 10 -20 14 -20 8z"/>
<path d="M935 2490 c-3 -5 -1 -10 4 -10 6 0 11 5 11 10 0 6 -2 10 -4 10 -3 0
-8 -4 -11 -10z"/>
<path d="M2070 2493 c0 -1 9 -7 19 -12 14 -8 22 -7 30 3 9 10 5 13 -19 12 -16
-1 -30 -2 -30 -3z"/>
<path d="M1120 2480 c0 -7 -2 -11 -5 -8 -7 7 -75 -61 -75 -74 0 -6 -6 -5 -15
2 -9 7 -18 10 -22 6 -3 -3 -1 -6 5 -6 6 0 9 -7 6 -15 -11 -28 11 -15 65 40 30
30 52 58 48 61 -4 4 -7 1 -7 -6z"/>
<path d="M2680 2480 c0 -5 5 -10 11 -10 5 0 7 5 4 10 -3 6 -8 10 -11 10 -2 0
-4 -4 -4 -10z"/>
<path d="M1908 2460 c-26 -24 -22 -35 4 -10 12 11 20 22 17 24 -2 2 -12 -4
-21 -14z"/>
<path d="M2640 2454 c0 -17 -7 -37 -15 -44 -19 -15 -16 -51 3 -58 9 -3 12 2
10 14 -3 11 3 33 13 50 16 27 17 33 4 50 -14 18 -14 17 -15 -12z"/>
<path d="M1050 2460 c0 -5 5 -10 11 -10 5 0 7 5 4 10 -3 6 -8 10 -11 10 -2 0
-4 -4 -4 -10z"/>
<path d="M1970 2461 c0 -6 9 -15 20 -21 13 -7 20 -7 20 -1 0 6 -9 15 -20 21
-13 7 -20 7 -20 1z"/>
<path d="M642 2444 c-10 -18 -5 -54 8 -54 11 0 19 60 9 66 -4 2 -12 -3 -17
-12z"/>
<path d="M2728 2454 c-5 -4 -8 -16 -8 -28 0 -14 3 -17 11 -9 6 6 9 19 7 28 -1
9 -6 13 -10 9z"/>
<path d="M870 2430 c-8 -5 -11 -12 -7 -16 4 -4 13 -2 19 4 6 6 10 14 7 16 -2
3 -11 1 -19 -4z"/>
<path d="M912 2425 c-17 -19 -1 -19 24 0 14 11 15 14 4 14 -8 0 -21 -6 -28
-14z"/>
<path d="M2050 2424 c0 -8 5 -12 10 -9 6 3 10 10 10 16 0 5 -4 9 -10 9 -5 0
-10 -7 -10 -16z"/>
<path d="M766 2415 c4 -8 8 -15 10 -15 2 0 4 7 4 15 0 8 -4 15 -10 15 -5 0 -7
-7 -4 -15z"/>
<path d="M1008 2423 c7 -3 16 -2 19 1 4 3 -2 6 -13 5 -11 0 -14 -3 -6 -6z"/>
<path d="M1865 2420 c3 -5 8 -10 11 -10 2 0 4 5 4 10 0 6 -5 10 -11 10 -5 0
-7 -4 -4 -10z"/>
<path d="M1957 2395 c-27 -28 -43 -69 -24 -62 7 2 14 12 16 22 1 10 14 28 28
41 14 13 21 24 16 24 -6 0 -22 -11 -36 -25z"/>
<path d="M2006 2394 c-11 -27 -7 -37 9 -24 16 14 20 40 6 40 -5 0 -12 -7 -15
-16z"/>
<path d="M1835 2390 c-3 -5 -1 -10 4 -10 6 0 11 5 11 10 0 6 -2 10 -4 10 -3 0
-8 -4 -11 -10z"/>
<path d="M1880 2385 c0 -8 4 -15 9 -15 5 0 11 7 15 15 3 9 0 15 -9 15 -8 0
-15 -7 -15 -15z"/>
<path d="M808 2383 c-18 -5 -23 -15 -12 -26 9 -8 44 11 44 23 0 10 -3 11 -32
3z"/>
<path d="M2683 2376 c3 -8 -1 -22 -8 -33 -21 -27 -18 -40 4 -17 28 31 36 64
16 64 -11 0 -15 -5 -12 -14z"/>
<path d="M2740 2365 c0 -14 5 -25 10 -25 6 0 10 11 10 25 0 14 -4 25 -10 25
-5 0 -10 -11 -10 -25z"/>
<path d="M658 2345 c6 -35 21 -42 18 -8 -2 15 -8 29 -13 30 -6 2 -8 -7 -5 -22z"/>
<path d="M1766 2320 c-44 -44 -53 -70 -24 -70 7 0 6 6 -2 15 -9 10 -9 15 -1
15 6 0 26 15 44 34 17 18 39 35 46 38 13 4 13 5 0 10 -10 4 -33 -12 -63 -42z"/>
<path d="M960 2339 c0 -18 2 -19 15 -9 15 12 12 30 -6 30 -5 0 -9 -10 -9 -21z"/>
<path d="M1970 2345 c0 -8 2 -15 4 -15 2 0 6 7 10 15 3 8 1 15 -4 15 -6 0 -10
-7 -10 -15z"/>
<path d="M810 2328 c0 -4 4 -8 9 -8 6 0 12 4 15 8 3 5 -1 9 -9 9 -8 0 -15 -4
-15 -9z"/>
<path d="M905 2330 c-3 -5 -1 -10 4 -10 6 0 11 5 11 10 0 6 -2 10 -4 10 -3 0
-8 -4 -11 -10z"/>
<path d="M1865 2330 c4 -6 11 -8 16 -5 14 9 11 15 -7 15 -8 0 -12 -5 -9 -10z"/>
<path d="M2592 2313 c-8 -15 -9 -24 -1 -28 15 -10 21 0 17 27 l-3 23 -13 -22z"/>
<path d="M700 2310 c-10 -6 -11 -10 -2 -10 6 0 12 -7 12 -15 0 -17 16 -20 25
-5 3 6 2 10 -4 10 -5 0 -11 7 -13 15 -2 10 -7 12 -18 5z"/>
<path d="M919 2284 c-21 -24 -22 -26 -3 -16 25 13 50 42 37 42 -5 0 -20 -12
-34 -26z"/>
<path d="M862 2288 c-15 -15 -16 -38 -1 -38 5 0 8 4 5 9 -4 5 -1 11 5 13 7 2
10 10 8 16 -3 10 -7 10 -17 0z"/>
<path d="M1897 2283 c-4 -3 -7 -13 -7 -22 1 -13 3 -13 11 2 11 19 8 33 -4 20z"/>
<path d="M2667 2260 c-3 -11 -1 -20 4 -20 5 0 9 9 9 20 0 11 -2 20 -4 20 -2 0
-6 -9 -9 -20z"/>
<path d="M2721 2264 c0 -11 3 -14 6 -6 3 7 2 16 -1 19 -3 4 -6 -2 -5 -13z"/>
<path d="M690 2254 c0 -8 5 -12 10 -9 6 4 8 11 5 16 -9 14 -15 11 -15 -7z"/>
<path d="M2566 2252 c-4 -13 -5 -26 -2 -29 10 -11 18 4 14 29 l-4 23 -8 -23z"/>
<path d="M1690 2244 c0 -3 7 -12 15 -21 20 -19 32 -9 15 12 -12 15 -30 20 -30
9z"/>
<path d="M2689 2217 c-7 -17 -17 -35 -22 -38 -6 -4 -7 -15 -3 -25 6 -16 10
-14 25 17 27 54 31 68 22 74 -5 2 -15 -10 -22 -28z"/>
<path d="M820 2232 c0 -4 9 -13 20 -20 23 -14 26 -7 6 14 -16 15 -26 18 -26 6z"/>
<path d="M1835 2215 c-16 -14 -25 -25 -18 -25 7 0 24 11 39 25 35 32 18 32
-21 0z"/>
<path d="M2625 2210 c-11 -18 5 -31 21 -16 8 8 14 17 14 20 0 10 -28 7 -35 -4z"/>
<path d="M710 2190 c0 -11 4 -20 9 -20 5 0 12 -10 16 -22 4 -15 8 -19 12 -10
3 8 0 19 -6 25 -6 6 -11 19 -11 29 0 10 -4 18 -10 18 -5 0 -10 -9 -10 -20z"/>
<path d="M2547 2204 c-4 -4 -7 -17 -7 -28 1 -19 1 -20 11 -3 11 19 8 43 -4 31z"/>
<path d="M760 2184 c0 -8 5 -12 10 -9 6 3 10 10 10 16 0 5 -4 9 -10 9 -5 0
-10 -7 -10 -16z"/>
<path d="M1727 2186 c-4 -9 -2 -18 3 -21 6 -4 10 -1 10 5 0 6 5 8 11 4 7 -4
10 -1 7 6 -6 20 -25 23 -31 6z"/>
<path d="M1675 2182 c-6 -4 0 -19 17 -37 16 -16 28 -24 28 -18 0 7 -4 15 -10
18 -5 3 -10 15 -10 26 0 20 -8 24 -25 11z"/>
<path d="M792 2168 c-14 -14 -16 -28 -3 -28 9 0 24 30 18 36 -2 2 -9 -2 -15
-8z"/>
<path d="M1752 2130 c-29 -28 -49 -50 -45 -50 5 0 33 23 62 50 29 28 49 50 44
50 -4 -1 -32 -23 -61 -50z"/>
<path d="M1601 2156 c-7 -9 -8 -17 -2 -20 5 -3 12 0 14 6 4 9 8 9 14 3 13 -16
43 -38 43 -32 0 8 -46 57 -52 57 -3 0 -11 -6 -17 -14z"/>
<path d="M2522 2140 c0 -14 2 -19 5 -12 2 6 2 18 0 25 -3 6 -5 1 -5 -13z"/>
<path d="M2556 2145 c-3 -8 -1 -15 4 -15 6 0 10 7 10 15 0 8 -2 15 -4 15 -2 0
-6 -7 -10 -15z"/>
<path d="M2620 2157 c0 -2 8 -19 17 -38 13 -24 18 -29 21 -17 4 20 -15 58 -28
58 -6 0 -10 -2 -10 -3z"/>
<path d="M1565 2120 c-3 -5 -1 -10 4 -10 6 0 11 5 11 10 0 6 -2 10 -4 10 -3 0
-8 -4 -11 -10z"/>
<path d="M1601 2101 c-10 -6 -10 -10 -1 -16 13 -8 24 -1 19 14 -3 6 -10 7 -18
2z"/>
<path d="M2490 2090 c0 -11 5 -20 10 -20 6 0 10 9 10 20 0 11 -4 20 -10 20 -5
0 -10 -9 -10 -20z"/>
<path d="M1536 2084 c-5 -14 -4 -15 9 -4 17 14 19 20 6 20 -5 0 -12 -7 -15
-16z"/>
<path d="M2560 2080 c0 -5 5 -10 10 -10 6 0 10 5 10 10 0 6 -4 10 -10 10 -5 0
-10 -4 -10 -10z"/>
<path d="M2627 2084 c-4 -4 -7 -14 -7 -23 0 -11 3 -12 11 -4 6 6 10 16 7 23
-2 6 -7 8 -11 4z"/>
<path d="M1620 2055 c-7 -8 -17 -12 -23 -8 -6 4 -8 -2 -4 -16 4 -17 2 -21 -9
-17 -8 3 -17 -1 -20 -9 -4 -8 -10 -13 -14 -10 -4 3 -10 -2 -14 -10 -6 -16 9
-21 19 -6 3 5 19 12 35 16 19 4 30 13 30 24 0 9 5 22 12 29 6 6 9 14 6 17 -3
3 -11 -1 -18 -10z"/>
<path d="M2452 2023 c-12 -23 -18 -44 -13 -48 12 -7 45 59 39 77 -3 7 -15 -6
-26 -29z"/>
<path d="M2512 2040 c-20 -32 -14 -45 8 -17 11 14 20 28 20 31 0 13 -16 5 -28
-14z"/>
<path d="M2584 2044 c3 -9 6 -24 6 -35 0 -25 17 -24 25 1 4 12 0 26 -9 35 -19
20 -30 19 -22 -1z"/>
<path d="M1657 2043 c-4 -3 -7 -13 -7 -20 0 -12 3 -12 15 1 8 8 15 17 15 20 0
8 -15 7 -23 -1z"/>
<path d="M1497 2014 c23 -17 33 -17 33 -1 0 6 -11 13 -26 13 -23 2 -24 1 -7
-12z"/>
<path d="M2550 2023 c1 -18 18 -35 24 -24 4 6 4 16 1 21 -7 12 -25 13 -25 3z"/>
<path d="M1476 1981 c-4 -7 -5 -15 -2 -18 9 -9 19 4 14 18 -4 11 -6 11 -12 0z"/>
<path d="M2570 1970 c0 -5 5 -10 10 -10 6 0 10 5 10 10 0 6 -4 10 -10 10 -5 0
-10 -4 -10 -10z"/>
<path d="M1410 1960 c0 -5 7 -10 16 -10 8 0 12 5 9 10 -3 6 -10 10 -16 10 -5
0 -9 -4 -9 -10z"/>
<path d="M2460 1961 c0 -5 5 -13 10 -16 6 -3 10 -2 10 4 0 5 -4 13 -10 16 -5
3 -10 2 -10 -4z"/>
<path d="M2515 1950 c-17 -18 -17 -20 -1 -20 9 0 19 7 23 15 9 25 -2 27 -22 5z"/>
<path d="M1552 1930 c-18 -29 -15 -33 8 -10 21 21 25 30 12 30 -4 0 -13 -9
-20 -20z"/>
<path d="M2402 1938 c-14 -14 -16 -28 -3 -28 5 0 11 9 14 20 6 23 5 24 -11 8z"/>
<path d="M2470 1920 c0 -5 5 -10 10 -10 6 0 10 5 10 10 0 6 -4 10 -10 10 -5 0
-10 -4 -10 -10z"/>
<path d="M1365 1910 c4 -6 11 -8 16 -5 14 9 11 15 -7 15 -8 0 -12 -5 -9 -10z"/>
<path d="M1464 1905 c-4 -8 -1 -22 6 -30 10 -12 10 -18 -1 -31 -11 -14 -14
-13 -25 8 -8 14 -13 17 -13 8 0 -8 6 -23 13 -32 12 -17 15 -16 40 14 31 38 33
52 6 43 -11 -4 -20 -2 -20 4 0 6 7 11 15 11 8 0 15 5 15 10 0 16 -30 12 -36
-5z"/>
<path d="M2540 1910 c0 -5 5 -10 10 -10 6 0 10 5 10 10 0 6 -4 10 -10 10 -5 0
-10 -4 -10 -10z"/>
<path d="M2352 1860 c-8 -17 -21 -37 -29 -46 -9 -8 -12 -18 -9 -22 9 -8 45 37
46 56 0 6 5 12 10 12 6 0 10 7 10 15 0 25 -14 17 -28 -15z"/>
<path d="M2513 1870 c-3 -11 -9 -20 -14 -20 -5 0 -9 -5 -9 -10 0 -6 -11 -23
-25 -38 -14 -15 -25 -31 -25 -35 0 -5 -7 -15 -15 -24 -8 -8 -12 -19 -9 -25 7
-11 43 28 44 47 0 6 12 21 25 34 14 13 25 29 25 36 0 7 7 18 15 25 18 15 20
30 4 30 -6 0 -13 -9 -16 -20z"/>
<path d="M1311 1856 c-24 -26 -17 -37 8 -13 11 10 13 8 8 -10 -3 -16 -1 -23 9
-23 15 0 16 11 5 48 l-6 24 -24 -26z"/>
<path d="M1350 1800 c-13 -24 4 -28 25 -6 12 12 12 15 0 20 -9 3 -19 -3 -25
-14z"/>
<path d="M2376 1802 c6 -4 15 -15 20 -24 8 -15 10 -14 20 6 10 21 8 23 -20 24
-16 0 -26 -2 -20 -6z"/>
<path d="M1276 1782 c-3 -6 -1 -14 5 -17 15 -10 25 3 12 16 -7 7 -13 7 -17 1z"/>
<path d="M1226 1771 c-10 -15 19 -49 31 -37 4 4 3 10 -3 14 -6 4 -13 14 -16
22 -3 11 -6 11 -12 1z"/>
<path d="M1389 1762 c-8 -10 -23 -24 -34 -30 -15 -9 -16 -11 -4 -12 17 0 66
47 57 56 -3 3 -12 -3 -19 -14z"/>
<path d="M2267 1743 c-4 -3 -7 -11 -7 -17 0 -6 5 -5 12 2 6 6 9 14 7 17 -3 3
-9 2 -12 -2z"/>
<path d="M2307 1743 c-3 -5 1 -14 9 -21 12 -11 14 -9 14 8 0 20 -14 27 -23 13z"/>
<path d="M1290 1729 c0 -5 5 -7 10 -4 6 3 10 8 10 11 0 2 -4 4 -10 4 -5 0 -10
-5 -10 -11z"/>
<path d="M2365 1730 c3 -5 8 -10 11 -10 2 0 4 5 4 10 0 6 -5 10 -11 10 -5 0
-7 -4 -4 -10z"/>
<path d="M1208 1698 c9 -9 15 -9 24 0 9 9 7 12 -12 12 -19 0 -21 -3 -12 -12z"/>
<path d="M2240 1700 c0 -5 5 -10 11 -10 6 0 9 -9 6 -20 -6 -22 8 -36 18 -19 4
6 2 22 -6 35 -13 24 -29 32 -29 14z"/>
<path d="M2395 1702 c-17 -12 -36 -52 -25 -52 6 0 14 8 17 18 4 9 11 20 17 24
6 4 8 9 5 12 -2 3 -9 2 -14 -2z"/>
<path d="M1138 1681 c-15 -18 -15 -22 0 -55 10 -19 20 -35 25 -36 14 0 7 38
-8 44 -20 7 -19 25 2 48 9 10 12 18 7 18 -5 0 -17 -9 -26 -19z"/>
<path d="M1315 1690 c4 -6 11 -8 16 -5 14 9 11 15 -7 15 -8 0 -12 -5 -9 -10z"/>
<path d="M1245 1680 c-3 -5 1 -10 9 -10 9 0 16 5 16 10 0 6 -4 10 -9 10 -6 0
-13 -4 -16 -10z"/>
<path d="M1170 1670 c0 -5 5 -10 10 -10 6 0 10 5 10 10 0 6 -4 10 -10 10 -5 0
-10 -4 -10 -10z"/>
<path d="M2210 1444 c0 -179 2 -225 12 -222 10 4 13 52 13 209 0 211 -2 239
-15 239 -5 0 -9 -102 -10 -226z"/>
<path d="M1191 1643 c-12 -13 -11 -14 7 -9 11 4 23 2 27 -4 8 -12 35 -13 35
-1 0 5 -8 11 -17 15 -10 3 -22 8 -28 11 -5 2 -16 -3 -24 -12z"/>
<path d="M2320 1640 c0 -5 5 -10 10 -10 6 0 10 5 10 10 0 6 -4 10 -10 10 -5 0
-10 -4 -10 -10z"/>
<path d="M1094 1594 c7 -64 16 -68 16 -6 0 29 -5 52 -10 52 -6 0 -8 -19 -6
-46z"/>
<path d="M2274 1589 c-3 -6 -1 -16 5 -22 8 -8 11 -5 11 11 0 24 -5 28 -16 11z"/>
<path d="M1218 1468 c4 -182 9 -193 11 -25 0 81 -2 147 -6 147 -5 0 -7 -55 -5
-122z"/>
<path d="M2324 1526 c-3 -8 -1 -22 4 -32 8 -14 10 -11 14 15 5 31 -8 43 -18
17z"/>
<path d="M1096 1504 c-3 -9 -2 -23 4 -32 7 -14 9 -10 10 16 0 35 -5 41 -14 16z"/>
<path d="M1104 1275 c0 -99 2 -138 3 -87 2 51 2 132 0 180 -1 48 -3 6 -3 -93z"/>
<path d="M1217 1271 c-4 -17 -3 -21 5 -13 5 5 8 16 6 23 -3 8 -7 3 -11 -10z"/>
<path d="M1230 1199 c0 -13 47 -22 76 -15 15 4 25 8 23 10 -10 8 -99 13 -99 5z"/>
<path d="M2051 1201 c-19 -3 -36 -12 -39 -19 -3 -11 6 -12 44 -7 59 9 71 15
53 26 -8 5 -16 8 -19 8 -3 -1 -20 -4 -39 -8z"/>
<path d="M2176 1194 c-19 -19 -21 -31 -3 -16 7 6 24 16 38 21 23 9 23 10 2 10
-12 1 -29 -6 -37 -15z"/>
<path d="M1406 1185 c-4 -11 2 -15 23 -15 26 0 30 -4 36 -40 8 -49 25 -53 25
-7 0 57 -67 106 -84 62z"/>
<path d="M1990 1137 c0 -19 6 -40 14 -46 10 -9 67 -12 183 -13 92 0 167 2 166
4 -1 2 -6 14 -12 28 -7 17 -10 20 -10 8 -1 -13 -10 -18 -28 -19 -306 -9 -293
-10 -293 38 0 12 -4 25 -10 28 -6 4 -10 -8 -10 -28z"/>
<path d="M1380 1151 c0 -18 18 -21 30 -6 10 13 9 15 -9 15 -11 0 -21 -4 -21
-9z"/>
<path d="M2169 1139 c-10 -6 -4 -9 19 -9 17 0 32 2 32 4 0 9 -39 13 -51 5z"/>
<path d="M2030 1128 c0 -10 30 -9 55 2 15 7 11 8 -17 7 -21 -1 -38 -5 -38 -9z"/>
<path d="M1155 1120 c3 -5 10 -10 16 -10 5 0 9 5 9 10 0 6 -7 10 -16 10 -8 0
-12 -4 -9 -10z"/>
<path d="M1200 1100 c0 -5 4 -10 9 -10 6 0 13 5 16 10 3 6 -1 10 -9 10 -9 0
-16 -4 -16 -10z"/>
<path d="M1090 1065 c0 -8 5 -15 10 -15 6 0 10 7 10 15 0 8 -4 15 -10 15 -5 0
-10 -7 -10 -15z"/>
<path d="M1135 1070 c-11 -4 55 -8 148 -9 92 -1 167 2 167 7 0 9 -288 11 -315
2z"/>
<path d="M1148 929 c-14 -8 -18 -23 -18 -65 0 -104 -60 -94 592 -94 642 0 597
-6 598 76 0 30 -7 48 -25 68 l-24 26 -553 0 c-357 -1 -559 -4 -570 -11z"/>
<path d="M3004 706 c-11 -30 1 -51 31 -54 16 -2 33 -9 38 -15 4 -7 7 -100 7
-207 -1 -107 -1 -201 -1 -208 1 -9 12 -12 34 -10 l32 3 5 215 5 215 35 5 c31
4 35 8 35 35 l0 30 -108 3 c-87 2 -108 0 -113 -12z"/>
<path d="M3277 713 c-12 -11 -8 -491 4 -498 5 -4 21 -4 34 -1 23 6 24 10 27
103 3 85 5 98 21 101 10 2 27 -4 38 -14 16 -14 19 -31 19 -93 0 -89 7 -104 46
-99 l29 3 0 92 c0 80 -3 95 -23 123 -21 27 -22 34 -10 48 57 69 45 196 -22
229 -26 13 -152 18 -163 6z m124 -73 c15 -9 19 -22 19 -69 0 -64 -13 -85 -52
-79 -21 3 -23 9 -26 67 -2 35 -1 70 2 77 6 17 30 18 57 4z"/>
<path d="M3622 712 c-7 -5 -17 -42 -22 -83 -5 -41 -16 -117 -25 -169 -28 -169
-35 -234 -26 -243 18 -18 45 -2 52 30 9 45 26 63 59 63 47 0 60 -10 60 -44 0
-38 15 -56 46 -56 33 0 38 16 26 74 -14 67 -32 174 -43 261 -5 39 -13 93 -17
120 l-7 50 -45 3 c-25 1 -51 -2 -58 -6z m64 -189 c7 -38 13 -87 14 -110 0 -43
0 -43 -36 -43 l-37 0 7 63 c20 193 29 208 52 90z"/>
<path d="M3853 713 c-10 -3 -13 -63 -13 -249 l0 -244 25 -6 c52 -13 55 -2 54
249 0 146 -4 236 -11 244 -11 13 -33 16 -55 6z"/>
<path d="M3992 708 c-7 -9 -11 -93 -11 -245 0 -225 0 -233 20 -244 45 -24 49
-11 49 160 0 93 4 162 10 166 5 3 11 -4 14 -17 29 -151 65 -289 78 -305 13
-17 65 -17 70 0 6 17 0 489 -6 495 -3 2 -16 2 -30 -2 -25 -6 -25 -7 -28 -126
-2 -70 -7 -121 -13 -121 -5 -1 -20 40 -32 92 -36 156 -35 154 -75 157 -20 2
-39 -3 -46 -10z"/>
<path d="M4280 713 c-1 -43 -1 -481 -1 -491 1 -9 12 -12 34 -10 l32 3 0 250 0
250 -32 3 c-18 2 -33 0 -33 -5z"/>
<path d="M4427 714 c-10 -10 -8 -477 2 -492 5 -8 17 -12 27 -10 17 3 19 17 24
173 5 169 5 170 22 135 9 -19 31 -95 49 -167 34 -139 43 -153 89 -138 20 6 21
14 20 245 -1 193 -4 241 -16 250 -7 7 -21 10 -29 6 -12 -4 -15 -28 -15 -130 0
-69 -4 -127 -10 -131 -8 -5 -22 33 -41 115 -19 87 -31 125 -41 137 -11 13 -70
18 -81 7z"/>
<path d="M4757 702 c-16 -10 -31 -31 -37 -52 -13 -46 -13 -325 0 -370 12 -45
53 -70 113 -70 82 0 107 43 107 186 l0 95 -52 -3 c-60 -3 -73 -23 -39 -57 16
-16 21 -34 21 -79 0 -52 -3 -60 -25 -72 -22 -12 -27 -11 -45 5 -18 17 -20 31
-20 180 0 149 2 163 20 180 18 16 23 17 45 5 17 -9 25 -22 25 -41 0 -43 10
-59 36 -59 31 0 38 18 29 75 -9 63 -45 95 -105 95 -25 0 -57 -8 -73 -18z"/>
<path d="M5032 695 c-20 -17 -31 -38 -36 -65 -10 -65 8 -112 74 -184 33 -36
62 -77 66 -91 8 -33 -3 -74 -22 -82 -21 -8 -58 31 -59 59 0 19 -6 24 -33 26
l-34 3 6 -38 c3 -21 5 -43 6 -48 0 -6 11 -23 25 -38 22 -23 34 -27 79 -27 64
0 93 25 104 91 12 65 -9 116 -78 189 -42 46 -59 72 -62 97 -4 36 14 73 36 73
18 0 46 -33 46 -53 0 -12 9 -17 29 -17 38 0 43 10 30 51 -26 79 -115 106 -177
54z"/>
<path d="M5375 708 c-3 -7 -4 -121 -3 -253 l3 -240 35 0 35 0 0 250 0 250 -33
3 c-20 2 -34 -2 -37 -10z"/>
<path d="M5524 707 c-2 -7 -3 -120 -2 -252 l3 -240 25 0 25 0 1 155 c1 85 2
162 2 169 3 29 20 -5 37 -74 9 -38 20 -83 25 -100 5 -16 13 -48 19 -70 23 -91
20 -86 54 -83 l32 3 3 248 c2 215 0 248 -13 253 -8 4 -22 1 -30 -6 -12 -10
-14 -37 -11 -136 1 -68 0 -124 -4 -124 -11 0 -36 69 -60 165 -12 49 -27 93
-33 97 -19 12 -67 9 -73 -5z"/>
<path d="M5840 692 c-38 -39 -47 -89 -25 -146 9 -24 25 -53 34 -63 9 -10 35
-40 59 -66 38 -42 43 -52 40 -89 -4 -52 -28 -70 -58 -43 -12 11 -19 28 -18 44
3 23 -1 26 -34 29 -36 3 -38 2 -38 -28 0 -35 13 -64 43 -98 31 -34 106 -31
147 5 66 59 48 149 -54 262 -47 53 -56 70 -56 101 0 69 48 78 78 16 11 -21 20
-26 40 -24 24 3 27 7 24 38 -6 84 -121 123 -182 62z"/>
<path d="M6064 706 c-12 -31 1 -51 36 -56 l35 -5 3 -212 2 -213 25 -6 c49 -12
52 0 51 213 -1 208 3 231 43 220 17 -4 25 0 33 18 21 47 9 53 -111 54 -90 1
-112 -1 -117 -13z"/>
<path d="M6328 478 c-2 -134 -1 -249 1 -256 2 -8 16 -12 35 -10 l31 3 0 250 0
250 -32 3 -32 3 -3 -243z"/>
<path d="M6457 714 c-4 -4 -7 -20 -7 -36 0 -25 3 -28 34 -28 22 0 36 -6 40
-16 3 -9 6 -108 6 -220 l0 -205 33 3 32 3 5 215 5 215 35 5 c31 4 35 8 35 35
l0 30 -106 3 c-58 1 -108 -1 -112 -4z"/>
<path d="M6724 706 c-3 -7 -4 -111 -2 -231 l3 -217 28 -24 c57 -48 158 -22
177 46 5 19 10 124 10 232 l0 198 -24 6 c-14 3 -30 3 -35 -1 -7 -4 -11 -78
-11 -212 0 -184 -2 -207 -17 -219 -23 -17 -28 -17 -47 2 -14 13 -16 47 -16
219 0 176 -2 204 -16 209 -26 10 -44 7 -50 -8z"/>
<path d="M6990 705 c-18 -21 -3 -55 25 -55 56 0 55 5 55 -220 0 -136 4 -211
11 -215 5 -4 21 -4 34 -1 l25 6 2 213 3 212 38 3 c35 3 37 5 37 38 l0 34 -109
0 c-83 0 -111 -3 -121 -15z"/>
<path d="M7254 707 c-2 -7 -3 -120 -2 -252 l3 -240 90 -3 c102 -2 121 4 111
41 -6 24 -11 26 -64 29 l-57 3 0 75 0 75 48 3 c48 3 48 4 45 35 -3 34 1 32
-81 36 -16 1 -18 9 -15 69 l3 67 57 3 c53 3 58 5 64 29 4 16 2 28 -7 34 -23
14 -189 11 -195 -4z"/>
<path d="M1720 643 c-399 -3 -405 -3 -422 -24 -22 -26 -23 -51 -3 -89 l16 -30
419 0 c412 0 419 0 430 20 18 33 8 101 -15 114 -14 8 -142 10 -425 9z"/>
<path d="M1463 372 c-18 -2 -33 -8 -33 -14 0 -22 74 -101 124 -132 66 -42 133
-60 189 -52 65 10 161 59 211 109 45 45 73 87 59 87 -124 3 -527 4 -550 2z"/>
</g>
</svg>
